<svg width="1200" height="300" viewBox="0 0 1200 300" fill="none" xmlns="http://www.w3.org/2000/svg">
<rect width="1200" height="300" fill="url(#paint0_linear_201_5)"/>
<g filter="url(#filter0_d_201_5)">
<path d="M312.031 86.1691C311.569 86.0743 311.2 85.9794 310.738 85.7897C310.275 85.6 309.906 85.5051 309.536 85.3154C308.704 84.9359 307.965 84.4616 307.226 83.8925C305.747 82.849 304.545 81.4261 303.621 79.7187C302.697 78.1061 302.142 76.2089 302.05 74.4066C301.957 73.458 302.05 72.6042 302.142 71.6556C302.235 71.1813 302.327 70.8019 302.42 70.3276C302.512 69.8533 302.697 69.4739 302.789 68.9996L302.882 70.3276C302.882 70.8019 302.974 71.1813 303.067 71.6556C303.159 72.5094 303.344 73.3631 303.529 74.122C303.898 75.7346 304.453 77.2523 305.285 78.6752C306.116 80.0981 307.041 81.4261 308.242 82.6593C308.797 83.2285 309.444 83.7976 310.091 84.3668C310.368 84.6514 310.738 84.9359 311.107 85.2205L312.031 86.1691ZM311.754 89.584C311.477 89.7738 311.107 89.8686 310.738 89.9635C310.368 90.0583 310.091 90.1532 309.721 90.1532C309.074 90.2481 308.335 90.3429 307.595 90.2481C306.209 90.1532 304.73 89.7738 303.529 89.1098C302.235 88.4457 301.126 87.4023 300.386 86.1691C300.017 85.6 299.647 84.9359 299.37 84.2719C299.277 83.9874 299.185 83.6079 299.092 83.2285C299.092 82.9439 299 82.6593 299 82.2799C299.277 82.5645 299.462 82.849 299.647 83.0388C299.924 83.3233 300.109 83.6079 300.294 83.7976C300.756 84.2719 301.126 84.7462 301.588 85.1257C302.512 85.9794 303.436 86.7383 304.545 87.3074C305.562 87.8766 306.763 88.3509 307.872 88.7303C308.427 88.92 309.074 89.0149 309.721 89.2046C309.998 89.2995 310.368 89.2995 310.645 89.3943C311.107 89.4892 311.385 89.4892 311.754 89.584ZM332.642 43.4824C333.104 43.5773 333.473 43.767 333.935 43.9567C334.398 44.1464 334.767 44.3361 335.137 44.5259C335.969 45.0002 336.708 45.4745 337.447 46.0436C338.926 47.1819 340.128 48.6997 340.96 50.4071C341.791 52.1146 342.253 54.0118 342.253 55.8141C342.253 56.7627 342.161 57.6164 341.976 58.565C341.884 59.0393 341.791 59.4188 341.606 59.8931C341.422 60.3674 341.329 60.7468 341.144 61.1262L341.052 59.7982C341.052 59.3239 341.052 58.9445 340.96 58.4702L340.682 55.909C340.405 54.2964 339.85 52.6838 339.111 51.166C338.372 49.6483 337.447 48.3202 336.338 47.0871C335.784 46.423 335.137 45.8539 334.582 45.1899C334.305 44.9053 333.935 44.6207 333.566 44.3361L332.642 43.4824ZM340.682 43.103C341.052 43.1978 341.329 43.2927 341.606 43.4824C341.884 43.5773 342.253 43.767 342.531 43.9567C343.085 44.3361 343.64 44.7156 344.194 45.1899C345.211 46.1385 346.043 47.2768 346.505 48.6048C347.059 49.9328 347.244 51.3557 347.059 52.7786C346.967 53.4426 346.782 54.1067 346.597 54.7707C346.505 55.0552 346.32 55.4347 346.228 55.7193C346.043 56.0038 345.95 56.2884 345.673 56.573V55.6244V54.6758C345.673 54.0118 345.581 53.4426 345.581 52.8735C345.396 51.6403 345.211 50.502 344.749 49.4585C344.287 48.3202 343.732 47.3716 343.085 46.3282C342.716 45.8539 342.346 45.2847 341.976 44.8104C341.791 44.5259 341.606 44.3361 341.329 44.0516C341.144 43.5773 340.867 43.2927 340.682 43.103Z" fill="#42ADE2"/>
<path d="M306.394 57.237C304.545 58.0907 303.898 60.3674 304.73 62.2646L316.375 87.2126L322.845 84.0822L311.2 59.0393C310.368 57.1422 308.242 56.2884 306.394 57.237ZM336.985 77.0626L343.825 73.7425L330.516 45.2847C329.592 43.3875 327.373 42.5338 325.433 43.4824C323.584 44.431 322.752 46.7076 323.677 48.6997L336.985 77.0626Z" fill="#FFDD67"/>
<path d="M325.525 43.3875C325.34 43.4824 325.155 43.5772 324.97 43.767C326.726 43.2927 328.575 44.1464 329.407 45.8539L342.715 74.3117L343.917 73.7425L330.608 45.2847C329.684 43.2927 327.466 42.4389 325.525 43.3875Z" fill="#EBA352"/>
<path d="M322.845 83.9873L329.961 80.4775L316.375 51.4506C315.451 49.4585 313.048 48.5099 311.107 49.4585C309.166 50.4071 308.335 52.8735 309.259 54.8655L322.845 83.9873Z" fill="#FFDD67"/>
<path d="M311.107 49.5534C310.922 49.6482 310.738 49.7431 310.553 49.9328C312.309 49.4585 314.342 50.3122 315.174 52.1146L323.584 70.2327L325.617 71.4659L316.375 51.5454C315.451 49.4585 313.14 48.6048 311.107 49.5534Z" fill="#EBA352"/>
<path d="M328.852 78.2009L335.969 74.6911L322.383 45.6641C321.458 43.6721 319.056 42.7235 317.115 43.7669C315.174 44.7155 314.342 47.1819 315.266 49.1739L328.852 78.2009Z" fill="#FFDD67"/>
<path d="M317.115 43.6721C316.93 43.7669 316.745 43.9567 316.56 44.0515C318.316 43.5772 320.349 44.431 321.181 46.2333L330.701 66.7229L332.734 67.9561L322.383 45.6641C321.459 43.5772 319.056 42.7235 317.115 43.6721ZM306.394 57.237C306.209 57.3318 306.024 57.4267 305.839 57.6164C307.503 57.1421 309.259 57.9958 309.998 59.7033L316.93 74.5962L318.963 75.8294L311.2 59.1342C310.368 57.1421 308.242 56.2884 306.394 57.237Z" fill="#EBA352"/>
<path d="M353.344 54.3912C350.849 52.3991 346.782 54.5809 344.749 61.4108C343.362 66.1538 343.178 67.5766 340.22 68.9995L338.557 65.4897C338.557 65.4897 312.309 78.4855 313.325 80.5724C313.325 80.5724 316.468 90.6275 321.828 95.2756C329.776 102.295 348.353 94.8013 349.185 76.6831C349.647 66.1538 356.024 56.573 353.344 54.3912Z" fill="#FFDD67"/>
<path d="M353.344 54.3912C352.882 54.0118 352.327 53.822 351.773 53.7272C351.865 53.822 352.05 53.822 352.143 53.9169C354.915 56.0987 352.05 61.1262 350.479 65.6795C349.185 69.2841 348.076 72.9836 348.261 76.5883C349 92.3349 333.566 99.8288 324.324 96.983C333.381 100.872 350.202 93.4732 349.462 77.0626C349.278 73.4579 350.294 69.9481 351.68 66.1537C353.159 61.6005 356.024 56.573 353.344 54.3912Z" fill="#EBA352"/>
<path d="M341.052 68.6201C335.322 69.2841 326.911 77.7266 332.826 86.928C328.483 77.6318 335.599 71.371 340.128 69.1893C340.59 68.8098 341.052 68.6201 341.052 68.6201Z" fill="#EBA352"/>
<path d="M391.034 87V52.0909H398.415V66.4943H413.398V52.0909H420.761V87H413.398V72.5795H398.415V87H391.034ZM426.71 87V60.8182H433.972V87H426.71ZM430.358 57.4432C429.278 57.4432 428.352 57.0852 427.58 56.3693C426.818 55.642 426.438 54.7727 426.438 53.7614C426.438 52.7614 426.818 51.9034 427.58 51.1875C428.352 50.4602 429.278 50.0966 430.358 50.0966C431.438 50.0966 432.358 50.4602 433.119 51.1875C433.892 51.9034 434.278 52.7614 434.278 53.7614C434.278 54.7727 433.892 55.642 433.119 56.3693C432.358 57.0852 431.438 57.4432 430.358 57.4432ZM447.68 82.2273L447.493 84.1023C447.345 85.6023 447.061 87.0966 446.641 88.5852C446.232 90.0852 445.8 91.4432 445.345 92.6591C444.902 93.875 444.544 94.8295 444.271 95.5227H439.567C439.737 94.8523 439.97 93.9148 440.266 92.7102C440.561 91.517 440.839 90.1761 441.101 88.6875C441.362 87.1989 441.527 85.6818 441.595 84.1364L441.68 82.2273H447.68ZM471.305 52.0909V87H463.925V52.0909H471.305ZM483.327 52.0909V55.7727C483.327 56.8182 483.122 57.8864 482.713 58.9773C482.315 60.0568 481.781 61.0795 481.111 62.0455C480.44 63 479.707 63.8125 478.912 64.483L475.707 62.5909C476.276 61.6932 476.776 60.6989 477.207 59.608C477.651 58.517 477.872 57.25 477.872 55.8068V52.0909H483.327ZM487.132 87V60.8182H494.053V65.4375H494.359C494.905 63.9034 495.814 62.6932 497.087 61.8068C498.359 60.9205 499.882 60.4773 501.655 60.4773C503.45 60.4773 504.979 60.9261 506.24 61.8239C507.501 62.7102 508.342 63.9148 508.763 65.4375H509.036C509.57 63.9375 510.536 62.7386 511.933 61.8409C513.342 60.9318 515.007 60.4773 516.928 60.4773C519.371 60.4773 521.354 61.2557 522.876 62.8125C524.411 64.358 525.178 66.5511 525.178 69.392V87H517.933V70.8239C517.933 69.3693 517.547 68.2784 516.774 67.5511C516.001 66.8239 515.036 66.4602 513.876 66.4602C512.558 66.4602 511.53 66.8807 510.791 67.7216C510.053 68.5511 509.683 69.6477 509.683 71.0114V87H502.643V70.6705C502.643 69.3864 502.274 68.3636 501.536 67.6023C500.808 66.8409 499.848 66.4602 498.655 66.4602C497.848 66.4602 497.121 66.6648 496.473 67.0739C495.837 67.4716 495.331 68.0341 494.956 68.7614C494.581 69.4773 494.393 70.3182 494.393 71.2841V87H487.132ZM561.097 62.1307C560.96 60.7557 560.375 59.6875 559.341 58.9261C558.307 58.1648 556.903 57.7841 555.131 57.7841C553.926 57.7841 552.909 57.9545 552.08 58.2955C551.25 58.625 550.614 59.0852 550.17 59.6761C549.739 60.267 549.523 60.9375 549.523 61.6875C549.5 62.3125 549.631 62.858 549.915 63.3239C550.21 63.7898 550.614 64.1932 551.125 64.5341C551.636 64.8636 552.227 65.1534 552.898 65.4034C553.568 65.642 554.284 65.8466 555.045 66.017L558.182 66.767C559.705 67.108 561.102 67.5625 562.375 68.1307C563.648 68.6989 564.75 69.3977 565.682 70.2273C566.614 71.0568 567.335 72.0341 567.847 73.1591C568.369 74.2841 568.636 75.5739 568.648 77.0284C568.636 79.1648 568.091 81.017 567.011 82.5852C565.943 84.142 564.398 85.3523 562.375 86.2159C560.364 87.0682 557.938 87.4943 555.097 87.4943C552.278 87.4943 549.824 87.0625 547.733 86.1989C545.653 85.3352 544.028 84.0568 542.858 82.3636C541.699 80.6591 541.091 78.5511 541.034 76.0398H548.176C548.256 77.2102 548.591 78.1875 549.182 78.9716C549.784 79.7443 550.585 80.3295 551.585 80.7273C552.597 81.1136 553.739 81.3068 555.011 81.3068C556.261 81.3068 557.347 81.125 558.267 80.7614C559.199 80.3977 559.92 79.892 560.432 79.2443C560.943 78.5966 561.199 77.8523 561.199 77.0114C561.199 76.2273 560.966 75.5682 560.5 75.0341C560.045 74.5 559.375 74.0455 558.489 73.6705C557.614 73.2955 556.54 72.9545 555.267 72.6477L551.466 71.6932C548.523 70.9773 546.199 69.858 544.494 68.3352C542.79 66.8125 541.943 64.7614 541.955 62.1818C541.943 60.0682 542.506 58.2216 543.642 56.642C544.79 55.0625 546.364 53.8295 548.364 52.9432C550.364 52.0568 552.636 51.6136 555.182 51.6136C557.773 51.6136 560.034 52.0568 561.966 52.9432C563.909 53.8295 565.42 55.0625 566.5 56.642C567.58 58.2216 568.136 60.0511 568.17 62.1307H561.097ZM580.737 71.8636V87H573.476V52.0909H580.533V65.4375H580.839C581.43 63.892 582.385 62.6818 583.703 61.8068C585.021 60.9205 586.675 60.4773 588.663 60.4773C590.482 60.4773 592.067 60.875 593.419 61.6705C594.783 62.4545 595.839 63.5852 596.589 65.0625C597.351 66.5284 597.726 68.2841 597.714 70.3295V87H590.453V71.625C590.464 70.0114 590.055 68.7557 589.226 67.858C588.408 66.9602 587.26 66.5114 585.783 66.5114C584.794 66.5114 583.919 66.7216 583.158 67.142C582.408 67.5625 581.817 68.1761 581.385 68.983C580.964 69.7784 580.749 70.7386 580.737 71.8636ZM620.219 75.8523V60.8182H627.48V87H620.509V82.2443H620.236C619.645 83.7784 618.662 85.0114 617.287 85.9432C615.923 86.875 614.259 87.3409 612.293 87.3409C610.543 87.3409 609.003 86.9432 607.673 86.1477C606.344 85.3523 605.304 84.2216 604.554 82.7557C603.815 81.2898 603.44 79.5341 603.429 77.4886V60.8182H610.69V76.1932C610.702 77.7386 611.116 78.9602 611.935 79.858C612.753 80.7557 613.849 81.2045 615.224 81.2045C616.099 81.2045 616.918 81.0057 617.679 80.608C618.44 80.1989 619.054 79.5966 619.52 78.8011C619.997 78.0057 620.23 77.0227 620.219 75.8523ZM657.697 60.8182L648.544 87H640.362L631.209 60.8182H638.879L644.317 79.5511H644.589L650.01 60.8182H657.697ZM672.399 87.5114C669.751 87.5114 667.462 86.9489 665.53 85.8239C663.609 84.6875 662.126 83.108 661.081 81.0852C660.036 79.0511 659.513 76.6932 659.513 74.0114C659.513 71.3068 660.036 68.9432 661.081 66.9205C662.126 64.8864 663.609 63.3068 665.53 62.1818C667.462 61.0455 669.751 60.4773 672.399 60.4773C675.047 60.4773 677.331 61.0455 679.251 62.1818C681.183 63.3068 682.672 64.8864 683.717 66.9205C684.763 68.9432 685.286 71.3068 685.286 74.0114C685.286 76.6932 684.763 79.0511 683.717 81.0852C682.672 83.108 681.183 84.6875 679.251 85.8239C677.331 86.9489 675.047 87.5114 672.399 87.5114ZM672.433 81.8864C673.638 81.8864 674.643 81.5455 675.45 80.8636C676.257 80.1705 676.865 79.2273 677.274 78.0341C677.695 76.8409 677.905 75.483 677.905 73.9602C677.905 72.4375 677.695 71.0795 677.274 69.8864C676.865 68.6932 676.257 67.75 675.45 67.0568C674.643 66.3636 673.638 66.017 672.433 66.017C671.217 66.017 670.195 66.3636 669.365 67.0568C668.547 67.75 667.928 68.6932 667.507 69.8864C667.098 71.0795 666.893 72.4375 666.893 73.9602C666.893 75.483 667.098 76.8409 667.507 78.0341C667.928 79.2273 668.547 80.1705 669.365 80.8636C670.195 81.5455 671.217 81.8864 672.433 81.8864ZM701.253 52.0909H710.355L719.969 75.5455H720.378L729.991 52.0909H739.094V87H731.935V64.2784H731.645L722.611 86.8295H717.736L708.702 64.1932H708.412V87H701.253V52.0909ZM756.868 87.5114C754.22 87.5114 751.93 86.9489 749.999 85.8239C748.078 84.6875 746.595 83.108 745.55 81.0852C744.504 79.0511 743.982 76.6932 743.982 74.0114C743.982 71.3068 744.504 68.9432 745.55 66.9205C746.595 64.8864 748.078 63.3068 749.999 62.1818C751.93 61.0455 754.22 60.4773 756.868 60.4773C759.516 60.4773 761.8 61.0455 763.72 62.1818C765.652 63.3068 767.141 64.8864 768.186 66.9205C769.232 68.9432 769.754 71.3068 769.754 74.0114C769.754 76.6932 769.232 79.0511 768.186 81.0852C767.141 83.108 765.652 84.6875 763.72 85.8239C761.8 86.9489 759.516 87.5114 756.868 87.5114ZM756.902 81.8864C758.107 81.8864 759.112 81.5455 759.919 80.8636C760.726 80.1705 761.334 79.2273 761.743 78.0341C762.163 76.8409 762.374 75.483 762.374 73.9602C762.374 72.4375 762.163 71.0795 761.743 69.8864C761.334 68.6932 760.726 67.75 759.919 67.0568C759.112 66.3636 758.107 66.017 756.902 66.017C755.686 66.017 754.663 66.3636 753.834 67.0568C753.016 67.75 752.396 68.6932 751.976 69.8864C751.567 71.0795 751.362 72.4375 751.362 73.9602C751.362 75.483 751.567 76.8409 751.976 78.0341C752.396 79.2273 753.016 80.1705 753.834 80.8636C754.663 81.5455 755.686 81.8864 756.902 81.8864ZM781.737 71.8636V87H774.476V52.0909H781.533V65.4375H781.839C782.43 63.892 783.385 62.6818 784.703 61.8068C786.021 60.9205 787.675 60.4773 789.663 60.4773C791.482 60.4773 793.067 60.875 794.419 61.6705C795.783 62.4545 796.839 63.5852 797.589 65.0625C798.351 66.5284 798.726 68.2841 798.714 70.3295V87H791.453V71.625C791.464 70.0114 791.055 68.7557 790.226 67.858C789.408 66.9602 788.26 66.5114 786.783 66.5114C785.794 66.5114 784.919 66.7216 784.158 67.142C783.408 67.5625 782.817 68.1761 782.385 68.983C781.964 69.7784 781.749 70.7386 781.737 71.8636ZM811.895 87.4943C810.224 87.4943 808.736 87.2045 807.429 86.625C806.122 86.0341 805.088 85.1648 804.327 84.017C803.577 82.858 803.202 81.4148 803.202 79.6875C803.202 78.233 803.469 77.0114 804.003 76.0227C804.537 75.0341 805.264 74.2386 806.185 73.6364C807.105 73.0341 808.151 72.5795 809.321 72.2727C810.503 71.9659 811.741 71.75 813.037 71.625C814.56 71.4659 815.787 71.3182 816.719 71.1818C817.651 71.0341 818.327 70.8182 818.747 70.5341C819.168 70.25 819.378 69.8295 819.378 69.2727V69.1705C819.378 68.0909 819.037 67.2557 818.355 66.6648C817.685 66.0739 816.73 65.7784 815.491 65.7784C814.185 65.7784 813.145 66.0682 812.372 66.6477C811.599 67.2159 811.088 67.9318 810.838 68.7955L804.122 68.25C804.463 66.6591 805.134 65.2841 806.134 64.125C807.134 62.9545 808.423 62.0568 810.003 61.4318C811.594 60.7955 813.435 60.4773 815.526 60.4773C816.98 60.4773 818.372 60.6477 819.702 60.9886C821.043 61.3295 822.23 61.858 823.264 62.5739C824.31 63.2898 825.134 64.2102 825.736 65.3352C826.338 66.4489 826.639 67.7841 826.639 69.3409V87H819.753V83.3693H819.548C819.128 84.1875 818.565 84.9091 817.861 85.5341C817.156 86.1477 816.31 86.6307 815.321 86.983C814.332 87.3239 813.19 87.4943 811.895 87.4943ZM813.974 82.483C815.043 82.483 815.986 82.2727 816.804 81.8523C817.622 81.4205 818.264 80.8409 818.73 80.1136C819.196 79.3864 819.429 78.5625 819.429 77.642V74.8636C819.202 75.0114 818.889 75.1477 818.491 75.2727C818.105 75.3864 817.668 75.4943 817.179 75.5966C816.69 75.6875 816.202 75.7727 815.713 75.8523C815.224 75.9205 814.781 75.983 814.384 76.0398C813.531 76.1648 812.787 76.3636 812.151 76.6364C811.514 76.9091 811.02 77.2784 810.668 77.7443C810.315 78.1989 810.139 78.767 810.139 79.4489C810.139 80.4375 810.497 81.1932 811.213 81.7159C811.94 82.2273 812.861 82.483 813.974 82.483ZM832.273 60.8182H839.534V88.2955C839.534 90.3182 839.136 91.9545 838.341 93.2045C837.545 94.4545 836.403 95.3693 834.915 95.9489C833.438 96.5284 831.67 96.8182 829.614 96.8182C829.364 96.8182 829.125 96.8125 828.898 96.8011C828.659 96.8011 828.409 96.7955 828.148 96.7841V91.108C828.341 91.1193 828.511 91.125 828.659 91.125C828.795 91.1364 828.943 91.142 829.102 91.142C830.273 91.142 831.091 90.892 831.557 90.392C832.034 89.9034 832.273 89.1648 832.273 88.1761V60.8182ZM835.886 57.4432C834.818 57.4432 833.898 57.0852 833.125 56.3693C832.352 55.642 831.966 54.7727 831.966 53.7614C831.966 52.7614 832.352 51.9034 833.125 51.1875C833.898 50.4602 834.818 50.0966 835.886 50.0966C836.977 50.0966 837.903 50.4602 838.665 51.1875C839.438 51.9034 839.824 52.7614 839.824 53.7614C839.824 54.7727 839.438 55.642 838.665 56.3693C837.903 57.0852 836.977 57.4432 835.886 57.4432ZM852.817 87.4943C851.146 87.4943 849.658 87.2045 848.351 86.625C847.044 86.0341 846.01 85.1648 845.249 84.017C844.499 82.858 844.124 81.4148 844.124 79.6875C844.124 78.233 844.391 77.0114 844.925 76.0227C845.459 75.0341 846.186 74.2386 847.107 73.6364C848.027 73.0341 849.072 72.5795 850.243 72.2727C851.425 71.9659 852.663 71.75 853.959 71.625C855.482 71.4659 856.709 71.3182 857.641 71.1818C858.572 71.0341 859.249 70.8182 859.669 70.5341C860.089 70.25 860.3 69.8295 860.3 69.2727V69.1705C860.3 68.0909 859.959 67.2557 859.277 66.6648C858.607 66.0739 857.652 65.7784 856.413 65.7784C855.107 65.7784 854.067 66.0682 853.294 66.6477C852.521 67.2159 852.01 67.9318 851.76 68.7955L845.044 68.25C845.385 66.6591 846.055 65.2841 847.055 64.125C848.055 62.9545 849.345 62.0568 850.925 61.4318C852.516 60.7955 854.357 60.4773 856.447 60.4773C857.902 60.4773 859.294 60.6477 860.624 60.9886C861.964 61.3295 863.152 61.858 864.186 62.5739C865.232 63.2898 866.055 64.2102 866.658 65.3352C867.26 66.4489 867.561 67.7841 867.561 69.3409V87H860.675V83.3693H860.47C860.05 84.1875 859.487 84.9091 858.783 85.5341C858.078 86.1477 857.232 86.6307 856.243 86.983C855.254 87.3239 854.112 87.4943 852.817 87.4943ZM854.896 82.483C855.964 82.483 856.908 82.2727 857.726 81.8523C858.544 81.4205 859.186 80.8409 859.652 80.1136C860.118 79.3864 860.351 78.5625 860.351 77.642V74.8636C860.124 75.0114 859.811 75.1477 859.413 75.2727C859.027 75.3864 858.589 75.4943 858.101 75.5966C857.612 75.6875 857.124 75.7727 856.635 75.8523C856.146 75.9205 855.703 75.983 855.305 76.0398C854.453 76.1648 853.709 76.3636 853.072 76.6364C852.436 76.9091 851.942 77.2784 851.589 77.7443C851.237 78.1989 851.061 78.767 851.061 79.4489C851.061 80.4375 851.419 81.1932 852.135 81.7159C852.862 82.2273 853.783 82.483 854.896 82.483ZM880.456 71.8636V87H873.195V60.8182H880.115V65.4375H880.422C881.001 63.9148 881.973 62.7102 883.337 61.8239C884.7 60.9261 886.354 60.4773 888.297 60.4773C890.115 60.4773 891.7 60.875 893.053 61.6705C894.405 62.4659 895.456 63.6023 896.206 65.0795C896.956 66.5455 897.331 68.2955 897.331 70.3295V87H890.07V71.625C890.081 70.0227 889.672 68.7727 888.842 67.875C888.013 66.9659 886.871 66.5114 885.416 66.5114C884.439 66.5114 883.575 66.7216 882.825 67.142C882.087 67.5625 881.507 68.1761 881.087 68.983C880.678 69.7784 880.467 70.7386 880.456 71.8636Z" fill="white"/>
</g>
<g filter="url(#filter1_d_201_5)">
<path d="M165.469 144.696C165.332 143.486 164.77 142.548 163.781 141.884C162.793 141.21 161.548 140.874 160.048 140.874C158.974 140.874 158.045 141.044 157.261 141.385C156.477 141.717 155.868 142.178 155.433 142.766C155.007 143.345 154.794 144.006 154.794 144.747C154.794 145.369 154.939 145.906 155.229 146.358C155.527 146.81 155.915 147.189 156.392 147.496C156.878 147.794 157.398 148.045 157.952 148.25C158.506 148.446 159.038 148.608 159.55 148.736L162.107 149.401C162.942 149.605 163.798 149.882 164.676 150.232C165.554 150.581 166.368 151.041 167.118 151.612C167.868 152.183 168.473 152.891 168.933 153.734C169.402 154.578 169.636 155.588 169.636 156.764C169.636 158.247 169.253 159.564 168.486 160.714C167.727 161.865 166.624 162.773 165.175 163.438C163.734 164.102 161.991 164.435 159.946 164.435C157.986 164.435 156.29 164.124 154.858 163.501C153.426 162.879 152.305 161.997 151.496 160.855C150.686 159.705 150.239 158.341 150.153 156.764H154.116C154.193 157.71 154.5 158.499 155.037 159.129C155.582 159.751 156.277 160.216 157.121 160.523C157.973 160.821 158.906 160.97 159.92 160.97C161.037 160.97 162.03 160.795 162.899 160.446C163.777 160.088 164.467 159.594 164.97 158.963C165.473 158.324 165.724 157.578 165.724 156.726C165.724 155.95 165.503 155.315 165.06 154.821C164.625 154.327 164.033 153.918 163.283 153.594C162.541 153.27 161.702 152.984 160.764 152.737L157.67 151.893C155.574 151.322 153.912 150.483 152.685 149.375C151.466 148.267 150.857 146.801 150.857 144.977C150.857 143.469 151.266 142.152 152.084 141.027C152.902 139.902 154.01 139.028 155.408 138.406C156.805 137.776 158.382 137.46 160.138 137.46C161.911 137.46 163.474 137.771 164.83 138.393C166.193 139.016 167.267 139.872 168.051 140.963C168.835 142.045 169.244 143.29 169.278 144.696H165.469ZM182.321 164.396C180.48 164.396 178.874 163.974 177.502 163.131C176.13 162.287 175.064 161.107 174.306 159.589C173.547 158.072 173.168 156.3 173.168 154.271C173.168 152.234 173.547 150.453 174.306 148.928C175.064 147.402 176.13 146.217 177.502 145.374C178.874 144.53 180.48 144.108 182.321 144.108C184.162 144.108 185.769 144.53 187.141 145.374C188.513 146.217 189.578 147.402 190.337 148.928C191.096 150.453 191.475 152.234 191.475 154.271C191.475 156.3 191.096 158.072 190.337 159.589C189.578 161.107 188.513 162.287 187.141 163.131C185.769 163.974 184.162 164.396 182.321 164.396ZM182.334 161.188C183.527 161.188 184.516 160.872 185.3 160.241C186.084 159.611 186.664 158.771 187.039 157.723C187.422 156.675 187.614 155.52 187.614 154.259C187.614 153.006 187.422 151.855 187.039 150.807C186.664 149.75 186.084 148.902 185.3 148.263C184.516 147.624 183.527 147.304 182.334 147.304C181.132 147.304 180.135 147.624 179.343 148.263C178.559 148.902 177.975 149.75 177.591 150.807C177.216 151.855 177.029 153.006 177.029 154.259C177.029 155.52 177.216 156.675 177.591 157.723C177.975 158.771 178.559 159.611 179.343 160.241C180.135 160.872 181.132 161.188 182.334 161.188ZM205.087 144.364V147.432H193.99V144.364H205.087ZM197.033 164V142.088C197.033 140.861 197.301 139.842 197.838 139.033C198.375 138.214 199.087 137.605 199.973 137.205C200.859 136.795 201.822 136.591 202.862 136.591C203.629 136.591 204.286 136.655 204.831 136.783C205.376 136.902 205.781 137.013 206.045 137.115L205.151 140.209C204.972 140.158 204.741 140.098 204.46 140.03C204.179 139.953 203.838 139.915 203.438 139.915C202.509 139.915 201.844 140.145 201.443 140.605C201.051 141.065 200.855 141.73 200.855 142.599V164H197.033ZM218.197 144.364V147.432H207.471V144.364H218.197ZM210.347 139.659H214.17V158.234C214.17 158.976 214.281 159.534 214.502 159.909C214.724 160.276 215.009 160.527 215.359 160.663C215.717 160.791 216.104 160.855 216.522 160.855C216.829 160.855 217.097 160.834 217.327 160.791C217.558 160.749 217.737 160.714 217.864 160.689L218.555 163.847C218.333 163.932 218.018 164.017 217.609 164.102C217.2 164.196 216.688 164.247 216.075 164.256C215.069 164.273 214.131 164.094 213.262 163.719C212.393 163.344 211.69 162.764 211.153 161.98C210.616 161.196 210.347 160.212 210.347 159.027V139.659ZM226.682 164L220.904 144.364H224.854L228.702 158.784H228.894L232.755 144.364H236.705L240.54 158.72H240.732L244.554 144.364H248.505L242.739 164H238.84L234.851 149.822H234.557L230.569 164H226.682ZM257.847 164.435C256.602 164.435 255.477 164.205 254.472 163.744C253.466 163.276 252.669 162.598 252.081 161.712C251.501 160.825 251.212 159.739 251.212 158.452C251.212 157.344 251.425 156.432 251.851 155.716C252.277 155 252.852 154.433 253.577 154.016C254.301 153.598 255.111 153.283 256.006 153.07C256.901 152.857 257.813 152.695 258.741 152.584C259.918 152.447 260.872 152.337 261.605 152.251C262.338 152.158 262.871 152.009 263.203 151.804C263.536 151.599 263.702 151.267 263.702 150.807V150.717C263.702 149.601 263.386 148.736 262.756 148.122C262.134 147.509 261.205 147.202 259.969 147.202C258.682 147.202 257.668 147.487 256.926 148.058C256.193 148.621 255.686 149.247 255.405 149.938L251.812 149.119C252.239 147.926 252.861 146.963 253.679 146.23C254.506 145.489 255.456 144.952 256.53 144.619C257.604 144.278 258.733 144.108 259.918 144.108C260.702 144.108 261.533 144.202 262.411 144.389C263.297 144.568 264.124 144.901 264.891 145.386C265.666 145.872 266.301 146.567 266.795 147.47C267.29 148.365 267.537 149.528 267.537 150.96V164H263.804V161.315H263.651C263.403 161.81 263.033 162.295 262.538 162.773C262.044 163.25 261.409 163.646 260.634 163.962C259.858 164.277 258.929 164.435 257.847 164.435ZM258.678 161.366C259.734 161.366 260.638 161.158 261.388 160.74C262.146 160.322 262.722 159.777 263.114 159.104C263.514 158.422 263.714 157.693 263.714 156.918V154.386C263.578 154.523 263.314 154.651 262.922 154.77C262.538 154.881 262.099 154.979 261.605 155.064C261.111 155.141 260.629 155.213 260.161 155.281C259.692 155.341 259.3 155.392 258.984 155.435C258.243 155.528 257.565 155.686 256.952 155.908C256.347 156.129 255.861 156.449 255.494 156.866C255.136 157.276 254.957 157.821 254.957 158.503C254.957 159.449 255.307 160.165 256.006 160.651C256.705 161.128 257.595 161.366 258.678 161.366ZM272.628 164V144.364H276.323V147.483H276.527C276.885 146.426 277.516 145.595 278.419 144.99C279.331 144.376 280.363 144.07 281.513 144.07C281.752 144.07 282.033 144.078 282.357 144.095C282.689 144.112 282.949 144.134 283.137 144.159V147.815C282.983 147.773 282.711 147.726 282.319 147.675C281.926 147.615 281.534 147.585 281.142 147.585C280.239 147.585 279.434 147.777 278.726 148.161C278.027 148.536 277.473 149.06 277.064 149.733C276.655 150.398 276.451 151.156 276.451 152.009V164H272.628ZM294.205 164.396C292.27 164.396 290.604 163.983 289.206 163.156C287.817 162.321 286.743 161.149 285.984 159.641C285.234 158.124 284.859 156.347 284.859 154.31C284.859 152.298 285.234 150.526 285.984 148.991C286.743 147.457 287.8 146.26 289.155 145.399C290.518 144.538 292.112 144.108 293.936 144.108C295.044 144.108 296.118 144.291 297.158 144.658C298.197 145.024 299.131 145.599 299.957 146.384C300.784 147.168 301.436 148.186 301.913 149.439C302.391 150.683 302.629 152.196 302.629 153.977V155.332H287.02V152.469H298.884C298.884 151.463 298.679 150.572 298.27 149.797C297.861 149.013 297.286 148.395 296.544 147.943C295.811 147.491 294.95 147.266 293.962 147.266C292.888 147.266 291.95 147.53 291.149 148.058C290.357 148.578 289.743 149.26 289.308 150.104C288.882 150.939 288.669 151.847 288.669 152.827V155.064C288.669 156.376 288.899 157.493 289.359 158.413C289.828 159.334 290.48 160.037 291.315 160.523C292.151 161 293.126 161.239 294.243 161.239C294.967 161.239 295.628 161.136 296.224 160.932C296.821 160.719 297.337 160.403 297.771 159.986C298.206 159.568 298.538 159.053 298.768 158.439L302.386 159.091C302.097 160.156 301.577 161.089 300.827 161.891C300.085 162.683 299.152 163.301 298.027 163.744C296.911 164.179 295.636 164.396 294.205 164.396ZM316.705 164V137.818H333.119V141.219H320.655V149.196H332.263V152.584H320.655V160.599H333.273V164H316.705ZM341.912 152.341V164H338.089V144.364H341.758V147.56H342.001C342.453 146.52 343.16 145.685 344.123 145.054C345.095 144.423 346.318 144.108 347.792 144.108C349.13 144.108 350.302 144.389 351.308 144.952C352.314 145.506 353.093 146.332 353.647 147.432C354.201 148.531 354.478 149.891 354.478 151.51V164H350.656V151.97C350.656 150.547 350.285 149.435 349.544 148.634C348.802 147.824 347.784 147.419 346.488 147.419C345.602 147.419 344.814 147.611 344.123 147.994C343.441 148.378 342.9 148.94 342.5 149.682C342.108 150.415 341.912 151.301 341.912 152.341ZM367.838 171.773C366.278 171.773 364.936 171.568 363.811 171.159C362.694 170.75 361.782 170.209 361.075 169.536C360.368 168.862 359.839 168.125 359.49 167.324L362.775 165.969C363.005 166.344 363.312 166.74 363.696 167.158C364.088 167.584 364.616 167.946 365.281 168.244C365.954 168.543 366.819 168.692 367.876 168.692C369.325 168.692 370.522 168.338 371.468 167.631C372.414 166.932 372.887 165.815 372.887 164.281V160.42H372.645C372.414 160.838 372.082 161.303 371.647 161.814C371.221 162.325 370.633 162.768 369.883 163.143C369.133 163.518 368.157 163.706 366.956 163.706C365.404 163.706 364.007 163.344 362.762 162.619C361.527 161.886 360.547 160.808 359.822 159.385C359.106 157.953 358.748 156.193 358.748 154.105C358.748 152.017 359.102 150.227 359.809 148.736C360.525 147.244 361.505 146.102 362.75 145.31C363.994 144.509 365.404 144.108 366.981 144.108C368.2 144.108 369.184 144.312 369.934 144.722C370.684 145.122 371.268 145.591 371.686 146.128C372.112 146.665 372.44 147.138 372.67 147.547H372.951V144.364H376.697V164.435C376.697 166.122 376.305 167.507 375.521 168.589C374.737 169.672 373.676 170.473 372.338 170.993C371.008 171.513 369.508 171.773 367.838 171.773ZM367.799 160.536C368.899 160.536 369.828 160.28 370.586 159.768C371.353 159.249 371.933 158.507 372.325 157.544C372.725 156.572 372.926 155.409 372.926 154.054C372.926 152.733 372.73 151.57 372.338 150.564C371.946 149.558 371.37 148.774 370.612 148.212C369.853 147.641 368.916 147.355 367.799 147.355C366.649 147.355 365.69 147.653 364.923 148.25C364.156 148.838 363.576 149.639 363.184 150.653C362.801 151.668 362.609 152.801 362.609 154.054C362.609 155.341 362.805 156.47 363.197 157.442C363.589 158.413 364.169 159.172 364.936 159.717C365.711 160.263 366.666 160.536 367.799 160.536ZM381.824 164V144.364H385.646V164H381.824ZM383.754 141.334C383.089 141.334 382.518 141.112 382.041 140.669C381.572 140.217 381.338 139.68 381.338 139.058C381.338 138.428 381.572 137.891 382.041 137.447C382.518 136.996 383.089 136.77 383.754 136.77C384.419 136.77 384.985 136.996 385.454 137.447C385.931 137.891 386.17 138.428 386.17 139.058C386.17 139.68 385.931 140.217 385.454 140.669C384.985 141.112 384.419 141.334 383.754 141.334ZM394.611 152.341V164H390.788V144.364H394.457V147.56H394.7C395.152 146.52 395.859 145.685 396.822 145.054C397.794 144.423 399.017 144.108 400.491 144.108C401.83 144.108 403.001 144.389 404.007 144.952C405.013 145.506 405.793 146.332 406.347 147.432C406.901 148.531 407.178 149.891 407.178 151.51V164H403.355V151.97C403.355 150.547 402.984 149.435 402.243 148.634C401.501 147.824 400.483 147.419 399.188 147.419C398.301 147.419 397.513 147.611 396.822 147.994C396.141 148.378 395.599 148.94 395.199 149.682C394.807 150.415 394.611 151.301 394.611 152.341ZM420.767 164.396C418.832 164.396 417.166 163.983 415.768 163.156C414.379 162.321 413.305 161.149 412.547 159.641C411.797 158.124 411.422 156.347 411.422 154.31C411.422 152.298 411.797 150.526 412.547 148.991C413.305 147.457 414.362 146.26 415.717 145.399C417.081 144.538 418.675 144.108 420.499 144.108C421.607 144.108 422.68 144.291 423.72 144.658C424.76 145.024 425.693 145.599 426.52 146.384C427.347 147.168 427.999 148.186 428.476 149.439C428.953 150.683 429.192 152.196 429.192 153.977V155.332H413.582V152.469H425.446C425.446 151.463 425.241 150.572 424.832 149.797C424.423 149.013 423.848 148.395 423.107 147.943C422.374 147.491 421.513 147.266 420.524 147.266C419.45 147.266 418.513 147.53 417.712 148.058C416.919 148.578 416.305 149.26 415.871 150.104C415.445 150.939 415.232 151.847 415.232 152.827V155.064C415.232 156.376 415.462 157.493 415.922 158.413C416.391 159.334 417.043 160.037 417.878 160.523C418.713 161 419.689 161.239 420.805 161.239C421.53 161.239 422.19 161.136 422.787 160.932C423.384 160.719 423.899 160.403 424.334 159.986C424.768 159.568 425.101 159.053 425.331 158.439L428.949 159.091C428.659 160.156 428.139 161.089 427.389 161.891C426.648 162.683 425.714 163.301 424.589 163.744C423.473 164.179 422.199 164.396 420.767 164.396ZM441.896 164.396C439.961 164.396 438.295 163.983 436.897 163.156C435.508 162.321 434.434 161.149 433.676 159.641C432.926 158.124 432.551 156.347 432.551 154.31C432.551 152.298 432.926 150.526 433.676 148.991C434.434 147.457 435.491 146.26 436.846 145.399C438.21 144.538 439.804 144.108 441.627 144.108C442.735 144.108 443.809 144.291 444.849 144.658C445.889 145.024 446.822 145.599 447.649 146.384C448.475 147.168 449.127 148.186 449.605 149.439C450.082 150.683 450.321 152.196 450.321 153.977V155.332H434.711V152.469H446.575C446.575 151.463 446.37 150.572 445.961 149.797C445.552 149.013 444.977 148.395 444.235 147.943C443.502 147.491 442.642 147.266 441.653 147.266C440.579 147.266 439.642 147.53 438.841 148.058C438.048 148.578 437.434 149.26 437 150.104C436.574 150.939 436.36 151.847 436.36 152.827V155.064C436.36 156.376 436.591 157.493 437.051 158.413C437.52 159.334 438.172 160.037 439.007 160.523C439.842 161 440.818 161.239 441.934 161.239C442.659 161.239 443.319 161.136 443.916 160.932C444.512 160.719 445.028 160.403 445.463 159.986C445.897 159.568 446.23 159.053 446.46 158.439L450.078 159.091C449.788 160.156 449.268 161.089 448.518 161.891C447.777 162.683 446.843 163.301 445.718 163.744C444.602 164.179 443.328 164.396 441.896 164.396ZM454.562 164V144.364H458.256V147.483H458.461C458.819 146.426 459.45 145.595 460.353 144.99C461.265 144.376 462.296 144.07 463.447 144.07C463.685 144.07 463.967 144.078 464.29 144.095C464.623 144.112 464.883 144.134 465.07 144.159V147.815C464.917 147.773 464.644 147.726 464.252 147.675C463.86 147.615 463.468 147.585 463.076 147.585C462.173 147.585 461.367 147.777 460.66 148.161C459.961 148.536 459.407 149.06 458.998 149.733C458.589 150.398 458.384 151.156 458.384 152.009V164H454.562ZM478.212 164V137.818H487.545C489.582 137.818 491.269 138.189 492.607 138.93C493.945 139.672 494.947 140.686 495.612 141.973C496.276 143.251 496.609 144.692 496.609 146.294C496.609 147.905 496.272 149.354 495.599 150.641C494.934 151.919 493.928 152.933 492.582 153.683C491.244 154.425 489.56 154.795 487.532 154.795H481.114V151.446H487.174C488.461 151.446 489.505 151.224 490.306 150.781C491.107 150.33 491.695 149.716 492.07 148.94C492.445 148.165 492.633 147.283 492.633 146.294C492.633 145.305 492.445 144.428 492.07 143.661C491.695 142.893 491.103 142.293 490.293 141.858C489.492 141.423 488.435 141.206 487.123 141.206H482.163V164H478.212ZM501.24 164V137.818H505.19V149.196H518.243V137.818H522.206V164H518.243V152.584H505.19V164H501.24ZM527.958 164V137.818H537.291C539.328 137.818 541.015 138.189 542.353 138.93C543.691 139.672 544.693 140.686 545.358 141.973C546.022 143.251 546.355 144.692 546.355 146.294C546.355 147.905 546.018 149.354 545.345 150.641C544.68 151.919 543.674 152.933 542.328 153.683C540.99 154.425 539.306 154.795 537.278 154.795H530.86V151.446H536.92C538.207 151.446 539.251 151.224 540.052 150.781C540.853 150.33 541.441 149.716 541.816 148.94C542.191 148.165 542.379 147.283 542.379 146.294C542.379 145.305 542.191 144.428 541.816 143.661C541.441 142.893 540.849 142.293 540.039 141.858C539.238 141.423 538.181 141.206 536.869 141.206H531.909V164H527.958ZM565.512 129.381V172.438H562.086V129.381H565.512ZM582.38 164V137.818H586.331V160.599H598.194V164H582.38ZM608.108 164.435C606.864 164.435 605.739 164.205 604.733 163.744C603.728 163.276 602.931 162.598 602.343 161.712C601.763 160.825 601.473 159.739 601.473 158.452C601.473 157.344 601.686 156.432 602.113 155.716C602.539 155 603.114 154.433 603.838 154.016C604.563 153.598 605.373 153.283 606.267 153.07C607.162 152.857 608.074 152.695 609.003 152.584C610.179 152.447 611.134 152.337 611.867 152.251C612.6 152.158 613.132 152.009 613.465 151.804C613.797 151.599 613.963 151.267 613.963 150.807V150.717C613.963 149.601 613.648 148.736 613.017 148.122C612.395 147.509 611.466 147.202 610.23 147.202C608.944 147.202 607.929 147.487 607.188 148.058C606.455 148.621 605.948 149.247 605.667 149.938L602.074 149.119C602.5 147.926 603.123 146.963 603.941 146.23C604.767 145.489 605.718 144.952 606.792 144.619C607.865 144.278 608.995 144.108 610.179 144.108C610.963 144.108 611.794 144.202 612.672 144.389C613.559 144.568 614.385 144.901 615.152 145.386C615.928 145.872 616.563 146.567 617.057 147.47C617.551 148.365 617.799 149.528 617.799 150.96V164H614.066V161.315H613.912C613.665 161.81 613.294 162.295 612.8 162.773C612.306 163.25 611.671 163.646 610.895 163.962C610.12 164.277 609.191 164.435 608.108 164.435ZM608.939 161.366C609.996 161.366 610.9 161.158 611.65 160.74C612.408 160.322 612.983 159.777 613.375 159.104C613.776 158.422 613.976 157.693 613.976 156.918V154.386C613.84 154.523 613.576 154.651 613.184 154.77C612.8 154.881 612.361 154.979 611.867 155.064C611.373 155.141 610.891 155.213 610.422 155.281C609.953 155.341 609.561 155.392 609.246 155.435C608.505 155.528 607.827 155.686 607.213 155.908C606.608 156.129 606.123 156.449 605.756 156.866C605.398 157.276 605.219 157.821 605.219 158.503C605.219 159.449 605.569 160.165 606.267 160.651C606.966 161.128 607.857 161.366 608.939 161.366ZM622.89 164V144.364H626.585V147.483H626.789C627.147 146.426 627.778 145.595 628.681 144.99C629.593 144.376 630.624 144.07 631.775 144.07C632.013 144.07 632.295 144.078 632.619 144.095C632.951 144.112 633.211 144.134 633.398 144.159V147.815C633.245 147.773 632.972 147.726 632.58 147.675C632.188 147.615 631.796 147.585 631.404 147.585C630.501 147.585 629.695 147.777 628.988 148.161C628.289 148.536 627.735 149.06 627.326 149.733C626.917 150.398 626.712 151.156 626.712 152.009V164H622.89ZM642.245 164.435C641.001 164.435 639.876 164.205 638.87 163.744C637.864 163.276 637.067 162.598 636.479 161.712C635.9 160.825 635.61 159.739 635.61 158.452C635.61 157.344 635.823 156.432 636.249 155.716C636.675 155 637.251 154.433 637.975 154.016C638.7 153.598 639.509 153.283 640.404 153.07C641.299 152.857 642.211 152.695 643.14 152.584C644.316 152.447 645.271 152.337 646.004 152.251C646.737 152.158 647.269 152.009 647.602 151.804C647.934 151.599 648.1 151.267 648.1 150.807V150.717C648.1 149.601 647.785 148.736 647.154 148.122C646.532 147.509 645.603 147.202 644.367 147.202C643.08 147.202 642.066 147.487 641.325 148.058C640.592 148.621 640.085 149.247 639.803 149.938L636.211 149.119C636.637 147.926 637.259 146.963 638.077 146.23C638.904 145.489 639.854 144.952 640.928 144.619C642.002 144.278 643.131 144.108 644.316 144.108C645.1 144.108 645.931 144.202 646.809 144.389C647.695 144.568 648.522 144.901 649.289 145.386C650.065 145.872 650.7 146.567 651.194 147.47C651.688 148.365 651.935 149.528 651.935 150.96V164H648.202V161.315H648.049C647.802 161.81 647.431 162.295 646.937 162.773C646.442 163.25 645.808 163.646 645.032 163.962C644.256 164.277 643.327 164.435 642.245 164.435ZM643.076 161.366C644.133 161.366 645.036 161.158 645.786 160.74C646.545 160.322 647.12 159.777 647.512 159.104C647.913 158.422 648.113 157.693 648.113 156.918V154.386C647.977 154.523 647.712 154.651 647.32 154.77C646.937 154.881 646.498 154.979 646.004 155.064C645.509 155.141 645.028 155.213 644.559 155.281C644.09 155.341 643.698 155.392 643.383 155.435C642.641 155.528 641.964 155.686 641.35 155.908C640.745 156.129 640.259 156.449 639.893 156.866C639.535 157.276 639.356 157.821 639.356 158.503C639.356 159.449 639.705 160.165 640.404 160.651C641.103 161.128 641.994 161.366 643.076 161.366ZM673.122 144.364L666.001 164H661.91L654.777 144.364H658.88L663.853 159.474H664.058L669.018 144.364H673.122ZM684.509 164.396C682.575 164.396 680.908 163.983 679.511 163.156C678.121 162.321 677.048 161.149 676.289 159.641C675.539 158.124 675.164 156.347 675.164 154.31C675.164 152.298 675.539 150.526 676.289 148.991C677.048 147.457 678.104 146.26 679.46 145.399C680.823 144.538 682.417 144.108 684.241 144.108C685.349 144.108 686.423 144.291 687.462 144.658C688.502 145.024 689.435 145.599 690.262 146.384C691.089 147.168 691.741 148.186 692.218 149.439C692.695 150.683 692.934 152.196 692.934 153.977V155.332H677.325V152.469H689.188C689.188 151.463 688.984 150.572 688.575 149.797C688.165 149.013 687.59 148.395 686.849 147.943C686.116 147.491 685.255 147.266 684.266 147.266C683.192 147.266 682.255 147.53 681.454 148.058C680.661 148.578 680.048 149.26 679.613 150.104C679.187 150.939 678.974 151.847 678.974 152.827V155.064C678.974 156.376 679.204 157.493 679.664 158.413C680.133 159.334 680.785 160.037 681.62 160.523C682.455 161 683.431 161.239 684.548 161.239C685.272 161.239 685.933 161.136 686.529 160.932C687.126 160.719 687.641 160.403 688.076 159.986C688.511 159.568 688.843 159.053 689.073 158.439L692.691 159.091C692.401 160.156 691.881 161.089 691.131 161.891C690.39 162.683 689.457 163.301 688.332 163.744C687.215 164.179 685.941 164.396 684.509 164.396ZM700.998 137.818V164H697.175V137.818H700.998ZM720.973 129.381V172.438H717.547V129.381H720.973ZM736.55 141.219V137.818H756.813V141.219H748.644V164H744.706V141.219H736.55ZM761.15 171.364C760.579 171.364 760.059 171.317 759.59 171.223C759.121 171.138 758.772 171.044 758.542 170.942L759.462 167.81C760.161 167.997 760.783 168.078 761.329 168.053C761.874 168.027 762.356 167.822 762.773 167.439C763.2 167.055 763.575 166.429 763.898 165.56L764.371 164.256L757.187 144.364H761.278L766.251 159.602H766.455L771.428 144.364H775.532L767.44 166.621C767.065 167.643 766.587 168.509 766.008 169.216C765.428 169.932 764.738 170.469 763.937 170.827C763.136 171.185 762.207 171.364 761.15 171.364ZM779.124 171.364V144.364H782.857V147.547H783.177C783.398 147.138 783.718 146.665 784.136 146.128C784.553 145.591 785.133 145.122 785.874 144.722C786.616 144.312 787.596 144.108 788.815 144.108C790.4 144.108 791.815 144.509 793.059 145.31C794.303 146.111 795.279 147.266 795.987 148.774C796.702 150.283 797.06 152.098 797.06 154.22C797.06 156.342 796.707 158.162 795.999 159.679C795.292 161.187 794.32 162.351 793.085 163.169C791.849 163.979 790.438 164.384 788.853 164.384C787.66 164.384 786.684 164.183 785.925 163.783C785.175 163.382 784.587 162.913 784.161 162.376C783.735 161.839 783.407 161.362 783.177 160.945H782.947V171.364H779.124ZM782.87 154.182C782.87 155.562 783.07 156.773 783.471 157.812C783.871 158.852 784.451 159.666 785.21 160.254C785.968 160.834 786.897 161.124 787.996 161.124C789.138 161.124 790.093 160.821 790.86 160.216C791.627 159.602 792.207 158.771 792.599 157.723C792.999 156.675 793.2 155.494 793.2 154.182C793.2 152.886 793.004 151.723 792.612 150.692C792.228 149.661 791.648 148.847 790.873 148.25C790.106 147.653 789.147 147.355 787.996 147.355C786.888 147.355 785.951 147.641 785.184 148.212C784.425 148.783 783.85 149.58 783.458 150.602C783.066 151.625 782.87 152.818 782.87 154.182ZM809.806 164.396C807.871 164.396 806.205 163.983 804.808 163.156C803.418 162.321 802.344 161.149 801.586 159.641C800.836 158.124 800.461 156.347 800.461 154.31C800.461 152.298 800.836 150.526 801.586 148.991C802.344 147.457 803.401 146.26 804.756 145.399C806.12 144.538 807.714 144.108 809.538 144.108C810.646 144.108 811.719 144.291 812.759 144.658C813.799 145.024 814.732 145.599 815.559 146.384C816.386 147.168 817.038 148.186 817.515 149.439C817.992 150.683 818.231 152.196 818.231 153.977V155.332H802.621V152.469H814.485C814.485 151.463 814.281 150.572 813.871 149.797C813.462 149.013 812.887 148.395 812.146 147.943C811.413 147.491 810.552 147.266 809.563 147.266C808.489 147.266 807.552 147.53 806.751 148.058C805.958 148.578 805.344 149.26 804.91 150.104C804.484 150.939 804.271 151.847 804.271 152.827V155.064C804.271 156.376 804.501 157.493 804.961 158.413C805.43 159.334 806.082 160.037 806.917 160.523C807.752 161 808.728 161.239 809.844 161.239C810.569 161.239 811.229 161.136 811.826 160.932C812.423 160.719 812.938 160.403 813.373 159.986C813.808 159.568 814.14 159.053 814.37 158.439L817.988 159.091C817.698 160.156 817.178 161.089 816.428 161.891C815.687 162.683 814.754 163.301 813.629 163.744C812.512 164.179 811.238 164.396 809.806 164.396ZM837.059 144.696C836.922 143.486 836.36 142.548 835.371 141.884C834.382 141.21 833.138 140.874 831.638 140.874C830.564 140.874 829.635 141.044 828.851 141.385C828.067 141.717 827.458 142.178 827.023 142.766C826.597 143.345 826.384 144.006 826.384 144.747C826.384 145.369 826.529 145.906 826.819 146.358C827.117 146.81 827.505 147.189 827.982 147.496C828.468 147.794 828.988 148.045 829.542 148.25C830.096 148.446 830.628 148.608 831.14 148.736L833.696 149.401C834.532 149.605 835.388 149.882 836.266 150.232C837.144 150.581 837.958 151.041 838.708 151.612C839.458 152.183 840.063 152.891 840.523 153.734C840.992 154.578 841.226 155.588 841.226 156.764C841.226 158.247 840.843 159.564 840.076 160.714C839.317 161.865 838.213 162.773 836.765 163.438C835.324 164.102 833.581 164.435 831.536 164.435C829.576 164.435 827.88 164.124 826.448 163.501C825.016 162.879 823.895 161.997 823.086 160.855C822.276 159.705 821.828 158.341 821.743 156.764H825.706C825.783 157.71 826.09 158.499 826.627 159.129C827.172 159.751 827.867 160.216 828.711 160.523C829.563 160.821 830.496 160.97 831.51 160.97C832.627 160.97 833.62 160.795 834.489 160.446C835.367 160.088 836.057 159.594 836.56 158.963C837.063 158.324 837.314 157.578 837.314 156.726C837.314 155.95 837.093 155.315 836.65 154.821C836.215 154.327 835.623 153.918 834.873 153.594C834.131 153.27 833.292 152.984 832.354 152.737L829.26 151.893C827.164 151.322 825.502 150.483 824.275 149.375C823.056 148.267 822.446 146.801 822.446 144.977C822.446 143.469 822.855 142.152 823.674 141.027C824.492 139.902 825.6 139.028 826.998 138.406C828.395 137.776 829.972 137.46 831.728 137.46C833.5 137.46 835.064 137.771 836.419 138.393C837.783 139.016 838.857 139.872 839.641 140.963C840.425 142.045 840.834 143.29 840.868 144.696H837.059ZM853.911 164.396C852.011 164.396 850.374 163.966 849.002 163.105C847.638 162.236 846.59 161.038 845.857 159.513C845.124 157.987 844.758 156.24 844.758 154.271C844.758 152.277 845.133 150.517 845.883 148.991C846.633 147.457 847.69 146.26 849.053 145.399C850.417 144.538 852.023 144.108 853.873 144.108C855.364 144.108 856.694 144.385 857.862 144.939C859.029 145.484 859.971 146.251 860.687 147.24C861.411 148.229 861.842 149.384 861.978 150.705H858.258C858.053 149.784 857.585 148.991 856.852 148.327C856.127 147.662 855.156 147.33 853.937 147.33C852.871 147.33 851.938 147.611 851.137 148.173C850.344 148.727 849.727 149.52 849.283 150.551C848.84 151.574 848.619 152.784 848.619 154.182C848.619 155.614 848.836 156.849 849.271 157.889C849.705 158.929 850.319 159.734 851.112 160.305C851.913 160.876 852.854 161.162 853.937 161.162C854.661 161.162 855.317 161.03 855.906 160.766C856.502 160.493 857.001 160.105 857.401 159.602C857.81 159.099 858.096 158.494 858.258 157.787H861.978C861.842 159.057 861.428 160.19 860.738 161.188C860.048 162.185 859.123 162.969 857.964 163.54C856.813 164.111 855.462 164.396 853.911 164.396ZM866.066 164V144.364H869.76V147.483H869.965C870.323 146.426 870.953 145.595 871.857 144.99C872.769 144.376 873.8 144.07 874.951 144.07C875.189 144.07 875.471 144.078 875.794 144.095C876.127 144.112 876.387 144.134 876.574 144.159V147.815C876.421 147.773 876.148 147.726 875.756 147.675C875.364 147.615 874.972 147.585 874.58 147.585C873.676 147.585 872.871 147.777 872.164 148.161C871.465 148.536 870.911 149.06 870.502 149.733C870.093 150.398 869.888 151.156 869.888 152.009V164H866.066ZM879.882 164V144.364H883.705V164H879.882ZM881.812 141.334C881.148 141.334 880.577 141.112 880.099 140.669C879.631 140.217 879.396 139.68 879.396 139.058C879.396 138.428 879.631 137.891 880.099 137.447C880.577 136.996 881.148 136.77 881.812 136.77C882.477 136.77 883.044 136.996 883.513 137.447C883.99 137.891 884.229 138.428 884.229 139.058C884.229 139.68 883.99 140.217 883.513 140.669C883.044 141.112 882.477 141.334 881.812 141.334ZM888.847 171.364V144.364H892.58V147.547H892.9C893.121 147.138 893.441 146.665 893.858 146.128C894.276 145.591 894.855 145.122 895.597 144.722C896.338 144.312 897.319 144.108 898.537 144.108C900.123 144.108 901.537 144.509 902.782 145.31C904.026 146.111 905.002 147.266 905.709 148.774C906.425 150.283 906.783 152.098 906.783 154.22C906.783 156.342 906.429 158.162 905.722 159.679C905.015 161.187 904.043 162.351 902.807 163.169C901.571 163.979 900.161 164.384 898.576 164.384C897.382 164.384 896.407 164.183 895.648 163.783C894.898 163.382 894.31 162.913 893.884 162.376C893.458 161.839 893.13 161.362 892.9 160.945H892.669V171.364H888.847ZM892.593 154.182C892.593 155.562 892.793 156.773 893.194 157.812C893.594 158.852 894.174 159.666 894.932 160.254C895.691 160.834 896.62 161.124 897.719 161.124C898.861 161.124 899.816 160.821 900.583 160.216C901.35 159.602 901.929 158.771 902.321 157.723C902.722 156.675 902.922 155.494 902.922 154.182C902.922 152.886 902.726 151.723 902.334 150.692C901.951 149.661 901.371 148.847 900.596 148.25C899.828 147.653 898.87 147.355 897.719 147.355C896.611 147.355 895.674 147.641 894.907 148.212C894.148 148.783 893.573 149.58 893.181 150.602C892.789 151.625 892.593 152.818 892.593 154.182ZM920.232 144.364V147.432H909.506V144.364H920.232ZM912.382 139.659H916.205V158.234C916.205 158.976 916.316 159.534 916.537 159.909C916.759 160.276 917.044 160.527 917.394 160.663C917.752 160.791 918.14 160.855 918.557 160.855C918.864 160.855 919.132 160.834 919.363 160.791C919.593 160.749 919.772 160.714 919.9 160.689L920.59 163.847C920.368 163.932 920.053 164.017 919.644 164.102C919.235 164.196 918.723 164.247 918.11 164.256C917.104 164.273 916.167 164.094 915.297 163.719C914.428 163.344 913.725 162.764 913.188 161.98C912.651 161.196 912.382 160.212 912.382 159.027V139.659ZM939.293 129.381V172.438H935.867V129.381H939.293ZM956.162 164V137.818H965.494C967.522 137.818 969.206 138.168 970.544 138.866C971.89 139.565 972.896 140.533 973.561 141.768C974.225 142.996 974.558 144.415 974.558 146.026C974.558 147.628 974.221 149.038 973.548 150.257C972.883 151.467 971.877 152.409 970.531 153.082C969.193 153.756 967.51 154.092 965.481 154.092H958.412V150.692H965.123C966.402 150.692 967.441 150.509 968.243 150.142C969.052 149.776 969.645 149.243 970.02 148.544C970.395 147.845 970.582 147.006 970.582 146.026C970.582 145.037 970.39 144.18 970.007 143.456C969.632 142.732 969.039 142.178 968.23 141.794C967.429 141.402 966.376 141.206 965.072 141.206H960.112V164H956.162ZM969.086 152.188L975.555 164H971.055L964.714 152.188H969.086ZM987.275 164.396C985.34 164.396 983.674 163.983 982.276 163.156C980.887 162.321 979.813 161.149 979.055 159.641C978.305 158.124 977.93 156.347 977.93 154.31C977.93 152.298 978.305 150.526 979.055 148.991C979.813 147.457 980.87 146.26 982.225 145.399C983.589 144.538 985.183 144.108 987.006 144.108C988.114 144.108 989.188 144.291 990.228 144.658C991.268 145.024 992.201 145.599 993.028 146.384C993.854 147.168 994.506 148.186 994.984 149.439C995.461 150.683 995.7 152.196 995.7 153.977V155.332H980.09V152.469H991.954C991.954 151.463 991.749 150.572 991.34 149.797C990.931 149.013 990.356 148.395 989.614 147.943C988.881 147.491 988.021 147.266 987.032 147.266C985.958 147.266 985.021 147.53 984.219 148.058C983.427 148.578 982.813 149.26 982.379 150.104C981.952 150.939 981.739 151.847 981.739 152.827V155.064C981.739 156.376 981.969 157.493 982.43 158.413C982.898 159.334 983.55 160.037 984.386 160.523C985.221 161 986.197 161.239 987.313 161.239C988.038 161.239 988.698 161.136 989.295 160.932C989.891 160.719 990.407 160.403 990.842 159.986C991.276 159.568 991.609 159.053 991.839 158.439L995.457 159.091C995.167 160.156 994.647 161.089 993.897 161.891C993.156 162.683 992.222 163.301 991.097 163.744C989.981 164.179 988.707 164.396 987.275 164.396ZM1005.66 164.435C1004.41 164.435 1003.29 164.205 1002.28 163.744C1001.27 163.276 1000.48 162.598 999.89 161.712C999.31 160.825 999.02 159.739 999.02 158.452C999.02 157.344 999.233 156.432 999.659 155.716C1000.09 155 1000.66 154.433 1001.39 154.016C1002.11 153.598 1002.92 153.283 1003.81 153.07C1004.71 152.857 1005.62 152.695 1006.55 152.584C1007.73 152.447 1008.68 152.337 1009.41 152.251C1010.15 152.158 1010.68 152.009 1011.01 151.804C1011.34 151.599 1011.51 151.267 1011.51 150.807V150.717C1011.51 149.601 1011.19 148.736 1010.56 148.122C1009.94 147.509 1009.01 147.202 1007.78 147.202C1006.49 147.202 1005.48 147.487 1004.73 148.058C1004 148.621 1003.49 149.247 1003.21 149.938L999.621 149.119C1000.05 147.926 1000.67 146.963 1001.49 146.23C1002.31 145.489 1003.26 144.952 1004.34 144.619C1005.41 144.278 1006.54 144.108 1007.73 144.108C1008.51 144.108 1009.34 144.202 1010.22 144.389C1011.11 144.568 1011.93 144.901 1012.7 145.386C1013.47 145.872 1014.11 146.567 1014.6 147.47C1015.1 148.365 1015.35 149.528 1015.35 150.96V164H1011.61V161.315H1011.46C1011.21 161.81 1010.84 162.295 1010.35 162.773C1009.85 163.25 1009.22 163.646 1008.44 163.962C1007.67 164.277 1006.74 164.435 1005.66 164.435ZM1006.49 161.366C1007.54 161.366 1008.45 161.158 1009.2 160.74C1009.95 160.322 1010.53 159.777 1010.92 159.104C1011.32 158.422 1011.52 157.693 1011.52 156.918V154.386C1011.39 154.523 1011.12 154.651 1010.73 154.77C1010.35 154.881 1009.91 154.979 1009.41 155.064C1008.92 155.141 1008.44 155.213 1007.97 155.281C1007.5 155.341 1007.11 155.392 1006.79 155.435C1006.05 155.528 1005.37 155.686 1004.76 155.908C1004.16 156.129 1003.67 156.449 1003.3 156.866C1002.94 157.276 1002.77 157.821 1002.77 158.503C1002.77 159.449 1003.12 160.165 1003.81 160.651C1004.51 161.128 1005.4 161.366 1006.49 161.366ZM1028.71 164.396C1026.81 164.396 1025.17 163.966 1023.8 163.105C1022.44 162.236 1021.39 161.038 1020.65 159.513C1019.92 157.987 1019.55 156.24 1019.55 154.271C1019.55 152.277 1019.93 150.517 1020.68 148.991C1021.43 147.457 1022.49 146.26 1023.85 145.399C1025.21 144.538 1026.82 144.108 1028.67 144.108C1030.16 144.108 1031.49 144.385 1032.66 144.939C1033.83 145.484 1034.77 146.251 1035.48 147.24C1036.21 148.229 1036.64 149.384 1036.77 150.705H1033.05C1032.85 149.784 1032.38 148.991 1031.65 148.327C1030.92 147.662 1029.95 147.33 1028.73 147.33C1027.67 147.33 1026.74 147.611 1025.93 148.173C1025.14 148.727 1024.52 149.52 1024.08 150.551C1023.64 151.574 1023.42 152.784 1023.42 154.182C1023.42 155.614 1023.63 156.849 1024.07 157.889C1024.5 158.929 1025.12 159.734 1025.91 160.305C1026.71 160.876 1027.65 161.162 1028.73 161.162C1029.46 161.162 1030.11 161.03 1030.7 160.766C1031.3 160.493 1031.8 160.105 1032.2 159.602C1032.61 159.099 1032.89 158.494 1033.05 157.787H1036.77C1036.64 159.057 1036.23 160.19 1035.53 161.188C1034.84 162.185 1033.92 162.969 1032.76 163.54C1031.61 164.111 1030.26 164.396 1028.71 164.396ZM1050.03 144.364V147.432H1039.3V144.364H1050.03ZM1042.18 139.659H1046V158.234C1046 158.976 1046.11 159.534 1046.33 159.909C1046.56 160.276 1046.84 160.527 1047.19 160.663C1047.55 160.791 1047.94 160.855 1048.35 160.855C1048.66 160.855 1048.93 160.834 1049.16 160.791C1049.39 160.749 1049.57 160.714 1049.7 160.689L1050.39 163.847C1050.17 163.932 1049.85 164.017 1049.44 164.102C1049.03 164.196 1048.52 164.247 1047.91 164.256C1046.9 164.273 1045.96 164.094 1045.09 163.719C1044.22 163.344 1043.52 162.764 1042.98 161.98C1042.45 161.196 1042.18 160.212 1042.18 159.027V139.659Z" fill="white"/>
</g>
<mask id="path-13-outside-1_201_5" maskUnits="userSpaceOnUse" x="512" y="202" width="60" height="62" fill="black">
<rect fill="white" x="512" y="202" width="60" height="62"/>
<path d="M571.251 216.574C571.272 216.654 571.283 216.736 571.283 216.819V229.698C571.283 230.034 571.103 230.345 570.812 230.512L560.002 236.736V249.071C560.002 249.407 559.824 249.717 559.533 249.886L536.969 262.875C536.917 262.904 536.861 262.923 536.804 262.943C536.783 262.95 536.763 262.963 536.741 262.969C536.583 263.01 536.418 263.01 536.26 262.969C536.234 262.962 536.211 262.948 536.186 262.938C536.134 262.92 536.08 262.903 536.031 262.875L513.472 249.886C513.18 249.718 513 249.408 513 249.071V210.435C513 210.35 513.012 210.268 513.033 210.188C513.04 210.161 513.056 210.137 513.066 210.11C513.083 210.06 513.1 210.01 513.126 209.964C513.143 209.933 513.169 209.909 513.19 209.881C513.217 209.843 513.242 209.804 513.273 209.771C513.3 209.744 513.336 209.724 513.366 209.701C513.4 209.673 513.431 209.642 513.47 209.62H513.471L524.751 203.125C525.041 202.958 525.399 202.958 525.69 203.125L536.97 209.62H536.972C537.01 209.644 537.042 209.673 537.076 209.7C537.106 209.723 537.14 209.744 537.167 209.77C537.2 209.804 537.224 209.843 537.252 209.881C537.272 209.909 537.299 209.933 537.315 209.964C537.342 210.011 537.357 210.06 537.376 210.11C537.386 210.137 537.402 210.161 537.409 210.189C537.431 210.269 537.442 210.352 537.442 210.435V234.567L546.842 229.154V216.818C546.842 216.736 546.853 216.652 546.874 216.574C546.883 216.545 546.898 216.521 546.907 216.494C546.926 216.444 546.943 216.394 546.968 216.348C546.986 216.318 547.012 216.293 547.032 216.265C547.06 216.227 547.083 216.189 547.116 216.156C547.143 216.129 547.177 216.109 547.208 216.085C547.243 216.057 547.274 216.027 547.311 216.004H547.312L558.594 209.51C558.884 209.342 559.242 209.342 559.533 209.51L570.813 216.004C570.853 216.028 570.883 216.057 570.918 216.084C570.948 216.108 570.982 216.129 571.009 216.155C571.042 216.189 571.065 216.227 571.093 216.265C571.114 216.293 571.14 216.318 571.157 216.348C571.184 216.394 571.199 216.444 571.218 216.494C571.228 216.521 571.244 216.545 571.251 216.574ZM569.403 229.154V218.445L565.456 220.717L560.002 223.857V234.567L569.404 229.154H569.403ZM558.123 248.528V237.811L552.759 240.875L537.441 249.617V260.435L558.123 248.528ZM514.88 212.06V248.528L535.56 260.433V249.618L524.757 243.504L524.753 243.502L524.748 243.499C524.712 243.478 524.682 243.448 524.648 243.422C524.618 243.398 524.584 243.379 524.558 243.354L524.556 243.35C524.525 243.321 524.504 243.284 524.479 243.252C524.455 243.22 524.427 243.193 524.408 243.16L524.407 243.156C524.386 243.121 524.373 243.079 524.358 243.039C524.342 243.004 524.322 242.971 524.313 242.933V242.932C524.301 242.888 524.299 242.841 524.294 242.795C524.29 242.76 524.28 242.724 524.28 242.689V242.687V217.473L518.828 214.332L514.88 212.062V212.06ZM525.222 205.025L515.823 210.435L525.219 215.845L534.617 210.433L525.219 205.025H525.222ZM530.109 238.788L535.561 235.649V212.06L531.614 214.333L526.161 217.473V241.061L530.109 238.788ZM559.063 211.409L549.666 216.819L559.063 222.229L568.459 216.818L559.063 211.409ZM558.123 223.857L552.669 220.717L548.722 218.445V229.154L554.174 232.293L558.123 234.567V223.857ZM536.499 247.991L550.283 240.122L557.173 236.19L547.783 230.783L536.971 237.008L527.117 242.681L536.499 247.991Z"/>
</mask>
<path d="M571.251 216.574C571.272 216.654 571.283 216.736 571.283 216.819V229.698C571.283 230.034 571.103 230.345 570.812 230.512L560.002 236.736V249.071C560.002 249.407 559.824 249.717 559.533 249.886L536.969 262.875C536.917 262.904 536.861 262.923 536.804 262.943C536.783 262.95 536.763 262.963 536.741 262.969C536.583 263.01 536.418 263.01 536.26 262.969C536.234 262.962 536.211 262.948 536.186 262.938C536.134 262.92 536.08 262.903 536.031 262.875L513.472 249.886C513.18 249.718 513 249.408 513 249.071V210.435C513 210.35 513.012 210.268 513.033 210.188C513.04 210.161 513.056 210.137 513.066 210.11C513.083 210.06 513.1 210.01 513.126 209.964C513.143 209.933 513.169 209.909 513.19 209.881C513.217 209.843 513.242 209.804 513.273 209.771C513.3 209.744 513.336 209.724 513.366 209.701C513.4 209.673 513.431 209.642 513.47 209.62H513.471L524.751 203.125C525.041 202.958 525.399 202.958 525.69 203.125L536.97 209.62H536.972C537.01 209.644 537.042 209.673 537.076 209.7C537.106 209.723 537.14 209.744 537.167 209.77C537.2 209.804 537.224 209.843 537.252 209.881C537.272 209.909 537.299 209.933 537.315 209.964C537.342 210.011 537.357 210.06 537.376 210.11C537.386 210.137 537.402 210.161 537.409 210.189C537.431 210.269 537.442 210.352 537.442 210.435V234.567L546.842 229.154V216.818C546.842 216.736 546.853 216.652 546.874 216.574C546.883 216.545 546.898 216.521 546.907 216.494C546.926 216.444 546.943 216.394 546.968 216.348C546.986 216.318 547.012 216.293 547.032 216.265C547.06 216.227 547.083 216.189 547.116 216.156C547.143 216.129 547.177 216.109 547.208 216.085C547.243 216.057 547.274 216.027 547.311 216.004H547.312L558.594 209.51C558.884 209.342 559.242 209.342 559.533 209.51L570.813 216.004C570.853 216.028 570.883 216.057 570.918 216.084C570.948 216.108 570.982 216.129 571.009 216.155C571.042 216.189 571.065 216.227 571.093 216.265C571.114 216.293 571.14 216.318 571.157 216.348C571.184 216.394 571.199 216.444 571.218 216.494C571.228 216.521 571.244 216.545 571.251 216.574ZM569.403 229.154V218.445L565.456 220.717L560.002 223.857V234.567L569.404 229.154H569.403ZM558.123 248.528V237.811L552.759 240.875L537.441 249.617V260.435L558.123 248.528ZM514.88 212.06V248.528L535.56 260.433V249.618L524.757 243.504L524.753 243.502L524.748 243.499C524.712 243.478 524.682 243.448 524.648 243.422C524.618 243.398 524.584 243.379 524.558 243.354L524.556 243.35C524.525 243.321 524.504 243.284 524.479 243.252C524.455 243.22 524.427 243.193 524.408 243.16L524.407 243.156C524.386 243.121 524.373 243.079 524.358 243.039C524.342 243.004 524.322 242.971 524.313 242.933V242.932C524.301 242.888 524.299 242.841 524.294 242.795C524.29 242.76 524.28 242.724 524.28 242.689V242.687V217.473L518.828 214.332L514.88 212.062V212.06ZM525.222 205.025L515.823 210.435L525.219 215.845L534.617 210.433L525.219 205.025H525.222ZM530.109 238.788L535.561 235.649V212.06L531.614 214.333L526.161 217.473V241.061L530.109 238.788ZM559.063 211.409L549.666 216.819L559.063 222.229L568.459 216.818L559.063 211.409ZM558.123 223.857L552.669 220.717L548.722 218.445V229.154L554.174 232.293L558.123 234.567V223.857ZM536.499 247.991L550.283 240.122L557.173 236.19L547.783 230.783L536.971 237.008L527.117 242.681L536.499 247.991Z" fill="white"/>
<path d="M571.251 216.574C571.272 216.654 571.283 216.736 571.283 216.819V229.698C571.283 230.034 571.103 230.345 570.812 230.512L560.002 236.736V249.071C560.002 249.407 559.824 249.717 559.533 249.886L536.969 262.875C536.917 262.904 536.861 262.923 536.804 262.943C536.783 262.95 536.763 262.963 536.741 262.969C536.583 263.01 536.418 263.01 536.26 262.969C536.234 262.962 536.211 262.948 536.186 262.938C536.134 262.92 536.08 262.903 536.031 262.875L513.472 249.886C513.18 249.718 513 249.408 513 249.071V210.435C513 210.35 513.012 210.268 513.033 210.188C513.04 210.161 513.056 210.137 513.066 210.11C513.083 210.06 513.1 210.01 513.126 209.964C513.143 209.933 513.169 209.909 513.19 209.881C513.217 209.843 513.242 209.804 513.273 209.771C513.3 209.744 513.336 209.724 513.366 209.701C513.4 209.673 513.431 209.642 513.47 209.62H513.471L524.751 203.125C525.041 202.958 525.399 202.958 525.69 203.125L536.97 209.62H536.972C537.01 209.644 537.042 209.673 537.076 209.7C537.106 209.723 537.14 209.744 537.167 209.77C537.2 209.804 537.224 209.843 537.252 209.881C537.272 209.909 537.299 209.933 537.315 209.964C537.342 210.011 537.357 210.06 537.376 210.11C537.386 210.137 537.402 210.161 537.409 210.189C537.431 210.269 537.442 210.352 537.442 210.435V234.567L546.842 229.154V216.818C546.842 216.736 546.853 216.652 546.874 216.574C546.883 216.545 546.898 216.521 546.907 216.494C546.926 216.444 546.943 216.394 546.968 216.348C546.986 216.318 547.012 216.293 547.032 216.265C547.06 216.227 547.083 216.189 547.116 216.156C547.143 216.129 547.177 216.109 547.208 216.085C547.243 216.057 547.274 216.027 547.311 216.004H547.312L558.594 209.51C558.884 209.342 559.242 209.342 559.533 209.51L570.813 216.004C570.853 216.028 570.883 216.057 570.918 216.084C570.948 216.108 570.982 216.129 571.009 216.155C571.042 216.189 571.065 216.227 571.093 216.265C571.114 216.293 571.14 216.318 571.157 216.348C571.184 216.394 571.199 216.444 571.218 216.494C571.228 216.521 571.244 216.545 571.251 216.574ZM569.403 229.154V218.445L565.456 220.717L560.002 223.857V234.567L569.404 229.154H569.403ZM558.123 248.528V237.811L552.759 240.875L537.441 249.617V260.435L558.123 248.528ZM514.88 212.06V248.528L535.56 260.433V249.618L524.757 243.504L524.753 243.502L524.748 243.499C524.712 243.478 524.682 243.448 524.648 243.422C524.618 243.398 524.584 243.379 524.558 243.354L524.556 243.35C524.525 243.321 524.504 243.284 524.479 243.252C524.455 243.22 524.427 243.193 524.408 243.16L524.407 243.156C524.386 243.121 524.373 243.079 524.358 243.039C524.342 243.004 524.322 242.971 524.313 242.933V242.932C524.301 242.888 524.299 242.841 524.294 242.795C524.29 242.76 524.28 242.724 524.28 242.689V242.687V217.473L518.828 214.332L514.88 212.062V212.06ZM525.222 205.025L515.823 210.435L525.219 215.845L534.617 210.433L525.219 205.025H525.222ZM530.109 238.788L535.561 235.649V212.06L531.614 214.333L526.161 217.473V241.061L530.109 238.788ZM559.063 211.409L549.666 216.819L559.063 222.229L568.459 216.818L559.063 211.409ZM558.123 223.857L552.669 220.717L548.722 218.445V229.154L554.174 232.293L558.123 234.567V223.857ZM536.499 247.991L550.283 240.122L557.173 236.19L547.783 230.783L536.971 237.008L527.117 242.681L536.499 247.991Z" stroke="white" stroke-width="1.2" mask="url(#path-13-outside-1_201_5)"/>
<path d="M675.447 222.447C674.747 222.206 674.022 221.978 673.276 221.763C673.399 221.262 673.511 220.768 673.611 220.282C675.255 212.306 674.18 205.879 670.511 203.764C666.993 201.735 661.24 203.85 655.429 208.907C654.87 209.393 654.31 209.908 653.75 210.448C653.377 210.091 653.004 209.746 652.632 209.416C646.543 204.009 640.438 201.73 636.773 203.852C633.258 205.886 632.218 211.928 633.697 219.487C633.84 220.218 634.007 220.963 634.195 221.721C633.331 221.967 632.497 222.228 631.699 222.506C624.56 224.995 620 228.897 620 232.943C620 237.123 624.895 241.314 632.331 243.856C632.918 244.057 633.527 244.247 634.155 244.427C633.951 245.247 633.774 246.05 633.625 246.834C632.215 254.262 633.316 260.161 636.822 262.183C640.442 264.271 646.519 262.124 652.436 256.952C652.903 256.543 653.373 256.11 653.843 255.655C654.452 256.242 655.061 256.798 655.666 257.319C661.397 262.251 667.058 264.242 670.56 262.215C674.177 260.121 675.353 253.784 673.827 246.075C673.71 245.486 673.574 244.885 673.422 244.273C673.849 244.146 674.268 244.016 674.676 243.881C682.407 241.319 687.437 237.178 687.437 232.943C687.437 228.882 682.73 224.954 675.447 222.447ZM673.77 241.146C673.401 241.268 673.023 241.386 672.637 241.501C671.784 238.799 670.632 235.926 669.223 232.957C670.568 230.06 671.675 227.223 672.505 224.539C673.194 224.738 673.864 224.949 674.509 225.171C680.75 227.319 684.556 230.496 684.556 232.943C684.556 235.55 680.445 238.934 673.77 241.146ZM671 246.635C671.675 250.043 671.772 253.126 671.325 255.535C670.923 257.7 670.115 259.143 669.117 259.721C666.991 260.952 662.446 259.353 657.545 255.135C656.983 254.651 656.417 254.135 655.849 253.589C657.749 251.51 659.649 249.094 661.502 246.411C664.762 246.122 667.842 245.649 670.635 245.003C670.773 245.558 670.895 246.102 671 246.635ZM642.991 259.509C640.914 260.242 639.261 260.263 638.261 259.687C636.134 258.46 635.25 253.724 636.456 247.371C636.594 246.644 636.758 245.896 636.948 245.132C639.711 245.743 642.768 246.183 646.036 246.448C647.902 249.073 649.856 251.487 651.825 253.6C651.395 254.015 650.966 254.41 650.54 254.783C647.924 257.07 645.302 258.693 642.991 259.509ZM633.263 241.13C629.975 240.006 627.259 238.546 625.398 236.952C623.725 235.519 622.881 234.097 622.881 232.943C622.881 230.488 626.542 227.355 632.648 225.227C633.389 224.968 634.164 224.725 634.969 224.496C635.813 227.241 636.92 230.111 638.256 233.013C636.903 235.959 635.78 238.874 634.928 241.651C634.354 241.486 633.798 241.313 633.263 241.13ZM636.524 218.934C635.257 212.457 636.098 207.571 638.216 206.345C640.472 205.039 645.461 206.901 650.719 211.57C651.056 211.868 651.393 212.181 651.731 212.504C649.772 214.608 647.836 217.003 645.987 219.613C642.815 219.907 639.779 220.379 636.988 221.012C636.812 220.306 636.657 219.612 636.524 218.934ZM665.613 226.117C664.946 224.964 664.261 223.839 663.563 222.744C665.714 223.016 667.776 223.378 669.712 223.819C669.131 225.682 668.406 227.63 667.553 229.626C666.942 228.465 666.295 227.294 665.613 226.117ZM653.751 214.563C655.08 216.002 656.41 217.61 657.719 219.354C656.4 219.291 655.065 219.259 653.719 219.259C652.385 219.259 651.06 219.291 649.749 219.352C651.059 217.624 652.401 216.019 653.751 214.563ZM641.812 226.137C641.146 227.293 640.511 228.457 639.909 229.624C639.07 227.635 638.352 225.678 637.766 223.789C639.69 223.358 641.742 223.006 643.88 222.739C643.171 223.844 642.481 224.978 641.812 226.137ZM643.941 243.352C641.732 243.106 639.65 242.772 637.726 242.353C638.322 240.431 639.055 238.432 639.912 236.4C640.515 237.566 641.153 238.731 641.824 239.889C642.507 241.069 643.215 242.225 643.941 243.352ZM653.831 251.527C652.465 250.053 651.103 248.424 649.773 246.671C651.064 246.722 652.381 246.747 653.719 246.747C655.093 246.747 656.452 246.717 657.789 246.657C656.476 248.441 655.15 250.074 653.831 251.527ZM667.581 236.296C668.482 238.351 669.242 240.338 669.845 242.229C667.89 242.675 665.779 243.034 663.555 243.301C664.255 242.191 664.946 241.047 665.625 239.869C666.312 238.678 666.964 237.485 667.581 236.296ZM663.129 238.43C662.075 240.258 660.993 242.003 659.894 243.65C657.893 243.793 655.826 243.867 653.719 243.867C651.62 243.867 649.579 243.801 647.613 243.674C646.47 242.005 645.364 240.255 644.317 238.446C643.272 236.641 642.311 234.822 641.44 233.012C642.311 231.199 643.269 229.377 644.308 227.576L644.308 227.576C645.349 225.77 646.445 224.029 647.578 222.371C649.583 222.219 651.64 222.14 653.719 222.14C655.806 222.14 657.866 222.22 659.871 222.372C660.986 224.019 662.074 225.754 663.12 227.561C664.177 229.387 665.149 231.197 666.027 232.971C665.151 234.777 664.182 236.604 663.129 238.43ZM669.072 206.259C671.331 207.562 672.209 212.814 670.79 219.701C670.699 220.14 670.598 220.588 670.487 221.042C667.689 220.396 664.651 219.916 661.47 219.617C659.617 216.978 657.697 214.58 655.769 212.503C656.288 212.004 656.805 211.529 657.32 211.08C662.299 206.747 666.952 205.037 669.072 206.259ZM653.719 226.921C657.044 226.921 659.741 229.617 659.741 232.943C659.741 236.269 657.044 238.965 653.719 238.965C650.393 238.965 647.697 236.269 647.697 232.943C647.697 229.617 650.393 226.921 653.719 226.921Z" fill="white"/>
<defs>
<filter id="filter0_d_201_5" x="295" y="43" width="606.331" height="63" filterUnits="userSpaceOnUse" color-interpolation-filters="sRGB">
<feFlood flood-opacity="0" result="BackgroundImageFix"/>
<feColorMatrix in="SourceAlpha" type="matrix" values="0 0 0 0 0 0 0 0 0 0 0 0 0 0 0 0 0 0 127 0" result="hardAlpha"/>
<feOffset dy="4"/>
<feGaussianBlur stdDeviation="2"/>
<feComposite in2="hardAlpha" operator="out"/>
<feColorMatrix type="matrix" values="0 0 0 0 0 0 0 0 0 0 0 0 0 0 0 0 0 0 0.25 0"/>
<feBlend mode="normal" in2="BackgroundImageFix" result="effect1_dropShadow_201_5"/>
<feBlend mode="normal" in="SourceGraphic" in2="effect1_dropShadow_201_5" result="shape"/>
</filter>
<filter id="filter1_d_201_5" x="146.153" y="129.381" width="908.233" height="51.0568" filterUnits="userSpaceOnUse" color-interpolation-filters="sRGB">
<feFlood flood-opacity="0" result="BackgroundImageFix"/>
<feColorMatrix in="SourceAlpha" type="matrix" values="0 0 0 0 0 0 0 0 0 0 0 0 0 0 0 0 0 0 127 0" result="hardAlpha"/>
<feOffset dy="4"/>
<feGaussianBlur stdDeviation="2"/>
<feComposite in2="hardAlpha" operator="out"/>
<feColorMatrix type="matrix" values="0 0 0 0 0 0 0 0 0 0 0 0 0 0 0 0 0 0 0.25 0"/>
<feBlend mode="normal" in2="BackgroundImageFix" result="effect1_dropShadow_201_5"/>
<feBlend mode="normal" in="SourceGraphic" in2="effect1_dropShadow_201_5" result="shape"/>
</filter>
<linearGradient id="paint0_linear_201_5" x1="8.9407e-06" y1="300" x2="1200" y2="-5.1409e-05" gradientUnits="userSpaceOnUse">
<stop stop-color="#00A997"/>
<stop offset="0.498106" stop-color="#006E93"/>
<stop offset="1" stop-color="#172836"/>
</linearGradient>
</defs>
</svg>
